<svg width="48" height="48" viewBox="0 0 48 48" fill="none" xmlns="http://www.w3.org/2000/svg">
<rect width="48" height="48" rx="24" fill="#437EF7"/>
<path d="M18.2769 16.3912C18.5268 15.869 18.6667 15.2842 18.6667 14.6667C18.6667 12.4575 16.8759 10.6667 14.6667 10.6667C12.4576 10.6667 10.6667 12.4575 10.6667 14.6667C10.6667 16.8758 12.4576 18.6667 14.6667 18.6667C15.2843 18.6667 15.8691 18.5267 16.3913 18.2768L18.4379 20.3235C17.7399 21.3774 17.3334 22.6412 17.3334 24C17.3334 25.3588 17.7399 26.6226 18.4379 27.6765L16.6908 29.4236C16.4705 29.3647 16.239 29.3333 16.0001 29.3333C14.5273 29.3333 13.3334 30.5272 13.3334 32C13.3334 33.4727 14.5273 34.6667 16.0001 34.6667C17.4728 34.6667 18.6667 33.4728 18.6667 32C18.6667 31.7611 18.6353 31.5296 18.5764 31.3093L20.3236 29.5621C21.3775 30.2602 22.6413 30.6667 24.0001 30.6667C25.3589 30.6667 26.6227 30.2602 27.6766 29.5621L29.7232 31.6088C29.4734 32.1309 29.3334 32.7158 29.3334 33.3333C29.3334 35.5425 31.1243 37.3333 33.3334 37.3333C35.5426 37.3333 37.3334 35.5425 37.3334 33.3333C37.3334 31.1242 35.5426 29.3333 33.3334 29.3333C32.7159 29.3333 32.131 29.4733 31.6089 29.7232L29.5622 27.6765C30.2602 26.6226 30.6667 25.3588 30.6667 24C30.6667 22.6412 30.2602 21.3774 29.5622 20.3235L31.3094 18.5763C31.5297 18.6352 31.7612 18.6667 32.0001 18.6667C33.4728 18.6667 34.6667 17.4727 34.6667 16C34.6667 14.5272 33.4728 13.3333 32.0001 13.3333C30.5273 13.3333 29.3334 14.5272 29.3334 16C29.3334 16.2389 29.3648 16.4704 29.4237 16.6907L27.6766 18.4379C26.6227 17.7398 25.3589 17.3333 24.0001 17.3333C22.6413 17.3333 21.3775 17.7398 20.3236 18.4379L18.2769 16.3912Z" fill="white"/>
</svg>
