<svg width="48" height="48" viewBox="0 0 48 48" fill="none" xmlns="http://www.w3.org/2000/svg">
<rect width="48" height="48" rx="24" fill="#437EF7"/>
<path d="M25.3334 19.832C27.6337 19.2399 29.3334 17.1518 29.3334 14.6666C29.3334 11.7211 26.9456 9.33331 24.0001 9.33331C21.0546 9.33331 18.6667 11.7211 18.6667 14.6666C18.6667 17.1518 20.3664 19.2399 22.6667 19.832V22.6666H18.6667C16.4576 22.6666 14.6667 24.4575 14.6667 26.6666V28.168C12.3664 28.7601 10.6667 30.8482 10.6667 33.3333C10.6667 36.2788 13.0546 38.6666 16.0001 38.6666C18.9456 38.6666 21.3334 36.2788 21.3334 33.3333C21.3334 30.8482 19.6337 28.7601 17.3334 28.168V26.6666C17.3334 25.9303 17.9304 25.3333 18.6667 25.3333H29.3334C30.0698 25.3333 30.6667 25.9303 30.6667 26.6666V28.168C28.3664 28.7601 26.6667 30.8482 26.6667 33.3333C26.6667 36.2788 29.0546 38.6666 32.0001 38.6666C34.9456 38.6666 37.3334 36.2788 37.3334 33.3333C37.3334 30.8482 35.6337 28.7601 33.3334 28.168V26.6666C33.3334 24.4575 31.5426 22.6666 29.3334 22.6666H25.3334V19.832Z" fill="white"/>
</svg>
