<svg width="48" height="48" viewBox="0 0 48 48" fill="none" xmlns="http://www.w3.org/2000/svg">
<rect width="48" height="48" rx="24" fill="#437EF7"/>
<path d="M32.0001 20C34.9456 20 37.3334 17.6122 37.3334 14.6666C37.3334 11.7211 34.9456 9.33331 32.0001 9.33331C29.0546 9.33331 26.6667 11.7211 26.6667 14.6666C26.6667 15.1696 26.7364 15.6563 26.8665 16.1176L19.7888 20.2463C18.8223 19.2708 17.4817 18.6666 16.0001 18.6666C13.0546 18.6666 10.6667 21.0545 10.6667 24C10.6667 26.9455 13.0546 29.3333 16.0001 29.3333C17.4817 29.3333 18.8223 28.7291 19.7888 27.7537L26.8665 31.8823C26.7364 32.3437 26.6667 32.8304 26.6667 33.3333C26.6667 36.2788 29.0546 38.6666 32.0001 38.6666C34.9456 38.6666 37.3334 36.2788 37.3334 33.3333C37.3334 30.3878 34.9456 28 32.0001 28C30.5184 28 29.1779 28.6042 28.2114 29.5796L21.1337 25.451C21.2638 24.9896 21.3334 24.5029 21.3334 24C21.3334 23.497 21.2638 23.0103 21.1337 22.549L28.2114 18.4203C29.1779 19.3958 30.5184 20 32.0001 20Z" fill="white"/>
</svg>
