<svg width="48" height="48" viewBox="0 0 48 48" fill="none" xmlns="http://www.w3.org/2000/svg">
<rect width="48" height="48" rx="24" fill="#437EF7"/>
<path fill-rule="evenodd" clip-rule="evenodd" d="M23.9999 9.33337C15.8997 9.33337 9.33325 15.8999 9.33325 24C9.33325 32.1002 15.8997 38.6667 23.9999 38.6667C32.1001 38.6667 38.6666 32.1002 38.6666 24C38.6666 15.8999 32.1001 9.33337 23.9999 9.33337ZM30.8408 17.1592C29.2953 15.6137 26.7895 15.6137 25.244 17.1592C24.7233 17.6799 24.7233 18.5241 25.2439 19.0448C25.7647 19.5655 26.6089 19.5655 27.1296 19.0448C27.6337 18.5407 28.451 18.5407 28.9552 19.0448C29.4593 19.5489 29.4593 20.3663 28.9552 20.8704L25.244 24.5816C24.9509 24.8747 24.5532 24.9982 24.1673 24.9494C23.4367 24.8569 22.7696 25.3742 22.6771 26.1048C22.5847 26.8353 23.102 27.5025 23.8326 27.5949C25.0011 27.7428 26.229 27.3678 27.1296 26.4672L30.8408 22.756C32.3863 21.2105 32.3863 18.7047 30.8408 17.1592ZM24.1673 20.4051C22.9988 20.2573 21.7709 20.6323 20.8703 21.5329L17.1591 25.2441C15.6135 26.7896 15.6135 29.2954 17.1591 30.8409C18.7046 32.3864 21.2104 32.3864 22.7559 30.8409C23.2766 30.3202 23.2766 29.476 22.7559 28.9553C22.2352 28.4346 21.391 28.4346 20.8703 28.9553C20.3661 29.4594 19.5488 29.4594 19.0447 28.9553C18.5406 28.4512 18.5406 27.6338 19.0447 27.1297L22.7559 23.4185C23.049 23.1254 23.4466 23.0019 23.8326 23.0507C24.5631 23.1431 25.2303 22.6258 25.3227 21.8953C25.4151 21.1647 24.8978 20.4976 24.1673 20.4051Z" fill="white"/>
</svg>
