<svg width="48" height="48" viewBox="0 0 48 48" fill="none" xmlns="http://www.w3.org/2000/svg">
<rect width="48" height="48" rx="24" fill="#437EF7"/>
<path d="M31.0572 22.2761L22.8541 30.4792C21.5989 28.2472 19.7528 26.4011 17.5208 25.1459L27.8248 14.8418C28.3528 14.3138 28.6169 14.0498 28.9213 13.9509C29.1891 13.8639 29.4775 13.8639 29.7453 13.9509C30.0498 14.0498 30.3138 14.3138 30.8418 14.8418L33.1582 17.1582C33.6862 17.6862 33.9502 17.9502 34.0491 18.2546C34.1361 18.5224 34.1361 18.8109 34.0491 19.0787C33.9502 19.3831 33.6862 19.6471 33.1582 20.1752L32.9428 20.3905L35.1381 22.5858C35.9191 23.3668 35.9191 24.6332 35.1381 25.4142L31.6095 28.9428C31.0888 29.4635 30.2446 29.4635 29.7239 28.9428C29.2032 28.4221 29.2032 27.5779 29.7239 27.0572L32.781 24L31.0572 22.2761Z" fill="white"/>
<path d="M15.6815 27.6222L14.6826 30.619C14.2483 31.9217 14.0312 32.5731 14.1856 33.0063C14.3201 33.3833 14.6167 33.6799 14.9937 33.8144C15.4268 33.9688 16.0782 33.7517 17.381 33.3174L20.3778 32.3185C20.5288 32.2682 20.648 32.2284 20.7477 32.1931C19.6637 30.0669 17.9331 28.3363 15.8068 27.2523C15.7716 27.3519 15.7318 27.4712 15.6815 27.6222Z" fill="white"/>
</svg>
